<svg xmlns="http://www.w3.org/2000/svg" width="119.973" height="120" viewBox="0 0 119.973 120">
  <path id="paper-plane" d="M116.71,1.309a7.5,7.5,0,0,1,3.163,7.311l-15,97.48a7.5,7.5,0,0,1-10.31,5.764L66.541,100.219,50.489,117.582a7.494,7.494,0,0,1-13.005-5.108V92.884a3.668,3.668,0,0,1,.984-2.507L77.742,47.518A3.741,3.741,0,0,0,72.493,42.2L24.831,84.542,4.14,74.185A7.465,7.465,0,0,1-.008,67.694a7.552,7.552,0,0,1,3.773-6.725L108.743.981a7.522,7.522,0,0,1,7.967.328Z" transform="translate(0.01 0.004)" fill="#fff"/>
</svg>
